<?xml version="1.0" encoding="UTF-8" standalone="no"?>
<svg width="16px" height="16px" viewBox="0 0 16 16" version="1.1" xmlns="http://www.w3.org/2000/svg" xmlns:xlink="http://www.w3.org/1999/xlink">
    <!-- Generator: Sketch 47 (45396) - http://www.bohemiancoding.com/sketch -->
    <title>linkedin-logo (1)</title>
    <desc>Created with Sketch.</desc>
    <defs></defs>
    <g id="Symbols" stroke="none" stroke-width="1" fill="none" fill-rule="evenodd">
        <g id="header" transform="translate(-232.000000, -24.000000)" fill-rule="nonzero" fill="#C5C5C5">
            <g id="linkedin-logo-(1)">
                <g transform="translate(232.000000, 24.000000)">
                    <path d="M15.7210097,9.23058367 L15.7210097,15.0427413 L12.3514883,15.0427413 L12.3514883,9.61984694 C12.3514883,8.25757167 11.8641234,7.32787207 10.6444683,7.32787207 C9.71341633,7.32787207 9.15934666,7.95442147 8.91559109,8.56050257 C8.82670017,8.77717419 8.80381953,9.07875271 8.80381953,9.38204911 L8.80381953,15.0427413 L5.43316505,15.0427413 C5.43316505,15.0427413 5.47856082,5.85813821 5.43316505,4.90654483 L8.80349058,4.90654483 L8.80349058,6.34331011 C8.79665563,6.35405597 8.78777384,6.36564249 8.78134095,6.37605939 L8.80349058,6.37605939 L8.80349058,6.34331011 C9.25127127,5.65363792 10.0509606,4.66841805 11.8409138,4.66841805 C14.0585448,4.6683815 15.7210097,6.11713535 15.7210097,9.23058367 Z M1.90731696,0.0203952027 C0.754220445,0.0203952027 0,0.77673558 0,1.77134894 C0,2.74428784 0.732399772,3.52358195 1.8625791,3.52358195 L1.88509423,3.52358195 C3.06052313,3.52358195 3.79153398,2.74443404 3.79153398,1.77134894 C3.76938435,0.77673558 3.06052313,0.0203952027 1.90731696,0.0203952027 Z M0.200187322,15.0427413 L3.56956254,15.0427413 L3.56956254,4.90654483 L0.200187322,4.90654483 L0.200187322,15.0427413 Z" id="LinkedIn"></path>
                </g>
            </g>
        </g>
    </g>
</svg>