<?xml version="1.0" encoding="UTF-8" standalone="no"?>
<svg width="16px" height="13px" viewBox="0 0 16 13" version="1.1" xmlns="http://www.w3.org/2000/svg" xmlns:xlink="http://www.w3.org/1999/xlink">
    <!-- Generator: Sketch 47 (45396) - http://www.bohemiancoding.com/sketch -->
    <title>twitter-logo-silhouette (1)</title>
    <desc>Created with Sketch.</desc>
    <defs></defs>
    <g id="Symbols" stroke="none" stroke-width="1" fill="none" fill-rule="evenodd">
        <g id="header" transform="translate(-200.000000, -26.000000)" fill-rule="nonzero" fill="#C5C5C5">
            <g id="twitter-logo-silhouette-(1)">
                <g transform="translate(200.000000, 26.000000)">
                    <path d="M15.794152,1.51444141 C15.2128386,1.77143581 14.5890976,1.94572648 13.9337424,2.02353803 C14.6029046,1.62374321 15.1151314,0.989612547 15.3579024,0.236318467 C14.7302129,0.606554165 14.0373595,0.875392813 13.2991107,1.02112854 C12.7079387,0.391915819 11.8670536,0 10.9343713,0 C9.14503544,0 7.69421633,1.44749567 7.69421633,3.23175417 C7.69421633,3.48480907 7.72283682,3.7319676 7.77811644,3.96831181 C5.08572527,3.8333904 2.69830109,2.54641001 1.10043095,0.590796168 C0.821116596,1.06739835 0.662219941,1.62273902 0.662219941,2.21554356 C0.662219941,3.33711647 1.23465566,4.32672901 2.1031806,4.90570668 C1.57219169,4.88799181 1.07279114,4.74225608 0.635586621,4.50001549 L0.635586621,4.54038892 C0.635586621,6.10604382 1.75281824,7.4127217 3.23421922,7.71011528 C2.96280195,7.78298315 2.676597,7.82335658 2.38050778,7.82335658 C2.17128654,7.82335658 1.96895589,7.80268065 1.77057379,7.76328565 C2.18310636,9.04830916 3.37930887,9.98276871 4.79657826,10.0083883 C3.68822441,10.8749237 2.29069775,11.3899167 0.772779186,11.3899167 C0.511246182,11.3899167 0.253635915,11.3741587 0,11.3456038 C1.43404425,12.2643311 3.13653791,12.8 4.96633987,12.8 C10.9265258,12.8 14.1844621,7.87457007 14.1844621,3.60299405 L14.1735971,3.18450592 C14.8101644,2.73151499 15.3608703,2.16237319 15.794152,1.51444141 Z" id="Shape"></path>
                </g>
            </g>
        </g>
    </g>
</svg>